  <svg width="24" height="24" viewBox="0 0 512 512" fill="none" xmlns="http://www.w3.org/2000/svg">
        <g clip-path="url(#clip0_5011_3136)">
        <path d="M255.989 0C114.623 0 0 114.623 0 255.989C0 397.355 114.623 512 255.989 512C397.355 512 512 397.355 512 255.989C512 114.623 397.355 0 255.989 0ZM309.28 396.748C296.104 401.95 285.615 405.894 277.748 408.625C268.924 411.507 259.679 412.891 250.398 412.721C234.447 412.721 222.029 408.82 213.187 401.04C204.345 393.259 199.945 383.399 199.945 371.414C199.945 366.755 200.271 361.987 200.921 357.132C201.724 351.602 202.787 346.113 204.106 340.683L220.599 282.429C222.051 276.838 223.308 271.528 224.305 266.587C225.302 261.602 225.778 257.029 225.778 252.868C225.778 245.457 224.24 240.255 221.184 237.33C218.085 234.404 212.255 232.974 203.565 232.974C199.317 232.974 194.939 233.602 190.453 234.924C186.01 236.289 182.153 237.525 178.989 238.738L183.345 220.794C194.137 216.394 204.475 212.624 214.336 209.503C223.353 206.486 232.785 204.892 242.292 204.778C258.135 204.778 270.358 208.636 278.961 216.264C287.522 223.915 291.835 233.862 291.835 246.085C291.835 248.621 291.531 253.085 290.946 259.457C290.438 265.411 289.334 271.299 287.652 277.033L271.246 335.113C269.776 340.367 268.568 345.69 267.627 351.064C266.734 355.536 266.205 360.073 266.045 364.631C266.045 372.346 267.757 377.612 271.225 380.408C274.649 383.204 280.652 384.612 289.147 384.612C293.157 384.612 297.643 383.897 302.714 382.51C307.742 381.123 311.383 379.888 313.68 378.826L309.28 396.748ZM306.376 161.001C298.917 168.035 288.996 171.864 278.745 171.664C267.995 171.664 258.72 168.109 251.005 161.001C247.336 157.774 244.405 153.794 242.412 149.332C240.418 144.871 239.409 140.033 239.453 135.146C239.453 125.069 243.354 116.4 251.005 109.227C258.48 102.136 268.443 98.2678 278.745 98.4557C289.516 98.4557 298.748 102.032 306.376 109.227C314.027 116.4 317.863 125.069 317.863 135.146C317.863 145.267 314.027 153.893 306.376 161.001Z" fill="#030104"/>
        </g>
        <defs>
        <clipPath id="clip0_5011_3136">
        <rect width="512" height="512" fill="white"/>
        </clipPath>
        </defs>
        </svg>