<svg width="55" height="50" viewBox="0 0 55 50" fill="none" xmlns="http://www.w3.org/2000/svg">
<path d="M2 42V39.5C2 29.835 9.83502 22 19.5 22H27.4875" stroke="white" stroke-width="3" stroke-linecap="round" stroke-linejoin="round"/>
<path d="M36.5095 22.7842C38.114 21.0225 40.886 21.0225 42.4905 22.7842C43.3015 23.6747 44.467 24.1575 45.67 24.1012C48.0502 23.99 50.0105 25.9502 49.8992 28.3305C49.843 29.5335 50.3257 30.6989 51.2162 31.5099C52.978 33.1144 52.978 35.8864 51.2162 37.4909C50.3257 38.3019 49.843 39.4675 49.8992 40.6705C50.0105 43.0507 48.0502 45.011 45.67 44.8997C44.467 44.8435 43.3015 45.3262 42.4905 46.2167C40.886 47.9785 38.114 47.9785 36.5095 46.2167C35.6985 45.3262 34.533 44.8435 33.33 44.8997C30.9497 45.011 28.9895 43.0507 29.1007 40.6705C29.157 39.4675 28.6742 38.3019 27.7837 37.4909C26.022 35.8864 26.022 33.1144 27.7837 31.5099C28.6742 30.6989 29.157 29.5335 29.1007 28.3305C28.9895 25.9502 30.9497 23.99 33.33 24.1012C34.533 24.1575 35.6985 23.6747 36.5095 22.7842Z" stroke="white" stroke-width="3"/>
<path d="M35.4092 34.4997L38.1367 37.227L43.5912 31.7725" stroke="white" stroke-width="3" stroke-linecap="round" stroke-linejoin="round"/>
<path d="M19.5 22C25.0228 22 29.5 17.5228 29.5 12C29.5 6.47715 25.0228 2 19.5 2C13.9771 2 9.5 6.47715 9.5 12C9.5 17.5228 13.9771 22 19.5 22Z" stroke="white" stroke-width="3" stroke-linecap="round" stroke-linejoin="round"/>
</svg>
